<svg xmlns="http://www.w3.org/2000/svg" viewBox="0 0 540 160" shape-rendering="crispEdges">
  <style>
    .wordmark { font-family: "Departure Mono", "JetBrains Mono", "IBM Plex Mono", ui-monospace, monospace; font-size: 88px; font-weight: 500; letter-spacing: -0.01em; fill: #14121C; }
  </style>
  <!-- Egg mark, 160x160, anchored left -->
  <g>
    <rect x="70" y="20" width="10.5" height="10.5" fill="#F5F1E8"/><rect x="80" y="20" width="10.5" height="10.5" fill="#F5F1E8"/>
    <rect x="60" y="30" width="10.5" height="10.5" fill="#F5F1E8"/><rect x="70" y="30" width="10.5" height="10.5" fill="#F5F1E8"/><rect x="80" y="30" width="10.5" height="10.5" fill="#F5F1E8"/><rect x="90" y="30" width="10.5" height="10.5" fill="#F5F1E8"/>
    <rect x="50" y="40" width="10.5" height="10.5" fill="#F5F1E8"/><rect x="60" y="40" width="10.5" height="10.5" fill="#F5F1E8"/><rect x="70" y="40" width="10.5" height="10.5" fill="#F5F1E8"/><rect x="80" y="40" width="10.5" height="10.5" fill="#F5F1E8"/><rect x="90" y="40" width="10.5" height="10.5" fill="#FFB4D8"/><rect x="100" y="40" width="10.5" height="10.5" fill="#C9C3D0"/>
    <rect x="40" y="50" width="10.5" height="10.5" fill="#F5F1E8"/><rect x="50" y="50" width="10.5" height="10.5" fill="#F5F1E8"/><rect x="60" y="50" width="10.5" height="10.5" fill="#FF6B35"/><rect x="70" y="50" width="10.5" height="10.5" fill="#F5F1E8"/><rect x="80" y="50" width="10.5" height="10.5" fill="#F5F1E8"/><rect x="90" y="50" width="10.5" height="10.5" fill="#F5F1E8"/><rect x="100" y="50" width="10.5" height="10.5" fill="#F5F1E8"/><rect x="110" y="50" width="10.5" height="10.5" fill="#C9C3D0"/>
    <rect x="40" y="60" width="10.5" height="10.5" fill="#A89BC4"/><rect x="50" y="60" width="10.5" height="10.5" fill="#F5F1E8"/><rect x="60" y="60" width="10.5" height="10.5" fill="#F5F1E8"/><rect x="70" y="60" width="10.5" height="10.5" fill="#F5F1E8"/><rect x="80" y="60" width="10.5" height="10.5" fill="#F5F1E8"/><rect x="90" y="60" width="10.5" height="10.5" fill="#F5F1E8"/><rect x="100" y="60" width="10.5" height="10.5" fill="#F5F1E8"/><rect x="110" y="60" width="10.5" height="10.5" fill="#C9C3D0"/>
    <rect x="40" y="70" width="10.5" height="10.5" fill="#F5F1E8"/><rect x="50" y="70" width="10.5" height="10.5" fill="#F5F1E8"/><rect x="60" y="70" width="10.5" height="10.5" fill="#F5F1E8"/><rect x="70" y="70" width="10.5" height="10.5" fill="#F5F1E8"/><rect x="80" y="70" width="10.5" height="10.5" fill="#3DBEDC"/><rect x="90" y="70" width="10.5" height="10.5" fill="#F5F1E8"/><rect x="100" y="70" width="10.5" height="10.5" fill="#F5F1E8"/><rect x="110" y="70" width="10.5" height="10.5" fill="#C9C3D0"/>
    <rect x="40" y="80" width="10.5" height="10.5" fill="#F5F1E8"/><rect x="50" y="80" width="10.5" height="10.5" fill="#F5F1E8"/><rect x="60" y="80" width="10.5" height="10.5" fill="#F5F1E8"/><rect x="70" y="80" width="10.5" height="10.5" fill="#F5F1E8"/><rect x="80" y="80" width="10.5" height="10.5" fill="#F5F1E8"/><rect x="90" y="80" width="10.5" height="10.5" fill="#F5F1E8"/><rect x="100" y="80" width="10.5" height="10.5" fill="#F5F1E8"/><rect x="110" y="80" width="10.5" height="10.5" fill="#C9C3D0"/>
    <rect x="40" y="90" width="10.5" height="10.5" fill="#F5F1E8"/><rect x="50" y="90" width="10.5" height="10.5" fill="#8AC34A"/><rect x="60" y="90" width="10.5" height="10.5" fill="#F5F1E8"/><rect x="70" y="90" width="10.5" height="10.5" fill="#F5F1E8"/><rect x="80" y="90" width="10.5" height="10.5" fill="#F5F1E8"/><rect x="90" y="90" width="10.5" height="10.5" fill="#F5F1E8"/><rect x="100" y="90" width="10.5" height="10.5" fill="#FFEA66"/><rect x="110" y="90" width="10.5" height="10.5" fill="#C9C3D0"/>
    <rect x="40" y="100" width="10.5" height="10.5" fill="#F5F1E8"/><rect x="50" y="100" width="10.5" height="10.5" fill="#F5F1E8"/><rect x="60" y="100" width="10.5" height="10.5" fill="#F5F1E8"/><rect x="70" y="100" width="10.5" height="10.5" fill="#F5F1E8"/><rect x="80" y="100" width="10.5" height="10.5" fill="#F5F1E8"/><rect x="90" y="100" width="10.5" height="10.5" fill="#B8C5D6"/><rect x="100" y="100" width="10.5" height="10.5" fill="#F5F1E8"/><rect x="110" y="100" width="10.5" height="10.5" fill="#C9C3D0"/>
    <rect x="40" y="110" width="10.5" height="10.5" fill="#F5F1E8"/><rect x="50" y="110" width="10.5" height="10.5" fill="#F5F1E8"/><rect x="60" y="110" width="10.5" height="10.5" fill="#F5F1E8"/><rect x="70" y="110" width="10.5" height="10.5" fill="#F5F1E8"/><rect x="80" y="110" width="10.5" height="10.5" fill="#F5F1E8"/><rect x="90" y="110" width="10.5" height="10.5" fill="#F5F1E8"/><rect x="100" y="110" width="10.5" height="10.5" fill="#F5F1E8"/><rect x="110" y="110" width="10.5" height="10.5" fill="#C9C3D0"/>
    <rect x="50" y="120" width="10.5" height="10.5" fill="#F5F1E8"/><rect x="60" y="120" width="10.5" height="10.5" fill="#F5F1E8"/><rect x="70" y="120" width="10.5" height="10.5" fill="#C9A47C"/><rect x="80" y="120" width="10.5" height="10.5" fill="#F5F1E8"/><rect x="90" y="120" width="10.5" height="10.5" fill="#F5F1E8"/><rect x="100" y="120" width="10.5" height="10.5" fill="#C9C3D0"/>
    <rect x="60" y="130" width="10.5" height="10.5" fill="#F5F1E8"/><rect x="70" y="130" width="10.5" height="10.5" fill="#F5F1E8"/><rect x="80" y="130" width="10.5" height="10.5" fill="#F5F1E8"/><rect x="90" y="130" width="10.5" height="10.5" fill="#C9C3D0"/>
  </g>
  <!-- Wordmark, baseline-aligned with egg vertical center -->
  <text x="180" y="105" class="wordmark" shape-rendering="auto">pyxie</text>
</svg>
