<svg xmlns="http://www.w3.org/2000/svg" viewBox="0 0 256 256" width="256" height="256" shape-rendering="crispEdges"><rect x="112" y="16" width="16.5" height="16.5" fill="#d8c9b0"/><rect x="128" y="16" width="16.5" height="16.5" fill="#d8c9b0"/><rect x="144" y="16" width="16.5" height="16.5" fill="#d8c9b0"/><rect x="96" y="32" width="16.5" height="16.5" fill="#d8c9b0"/><rect x="112" y="32" width="16.5" height="16.5" fill="#d8c9b0"/><rect x="128" y="32" width="16.5" height="16.5" fill="#d8c9b0"/><rect x="144" y="32" width="16.5" height="16.5" fill="#d8c9b0"/><rect x="160" y="32" width="16.5" height="16.5" fill="#d8c9b0"/><rect x="80" y="48" width="16.5" height="16.5" fill="#d8c9b0"/><rect x="96" y="48" width="16.5" height="16.5" fill="#d8c9b0"/><rect x="112" y="48" width="16.5" height="16.5" fill="#b8a890"/><rect x="128" y="48" width="16.5" height="16.5" fill="#b8a890"/><rect x="144" y="48" width="16.5" height="16.5" fill="#b8a890"/><rect x="160" y="48" width="16.5" height="16.5" fill="#b8a890"/><rect x="176" y="48" width="16.5" height="16.5" fill="#d8c9b0"/><rect x="64" y="64" width="16.5" height="16.5" fill="#d8c9b0"/><rect x="80" y="64" width="16.5" height="16.5" fill="#d8c9b0"/><rect x="96" y="64" width="16.5" height="16.5" fill="#b8a890"/><rect x="112" y="64" width="16.5" height="16.5" fill="#d8c9b0"/><rect x="128" y="64" width="16.5" height="16.5" fill="#b8a890"/><rect x="144" y="64" width="16.5" height="16.5" fill="#b8a890"/><rect x="160" y="64" width="16.5" height="16.5" fill="#b8a890"/><rect x="176" y="64" width="16.5" height="16.5" fill="#b8a890"/><rect x="192" y="64" width="16.5" height="16.5" fill="#d8c9b0"/><rect x="48" y="80" width="16.5" height="16.5" fill="#d8c9b0"/><rect x="64" y="80" width="16.5" height="16.5" fill="#b8a890"/><rect x="80" y="80" width="16.5" height="16.5" fill="#8a7866"/><rect x="96" y="80" width="16.5" height="16.5" fill="#ffffff"/><rect x="112" y="80" width="16.5" height="16.5" fill="#ffffff"/><rect x="128" y="80" width="16.5" height="16.5" fill="#0a0a0a"/><rect x="144" y="80" width="16.5" height="16.5" fill="#b8a890"/><rect x="160" y="80" width="16.5" height="16.5" fill="#b8a890"/><rect x="176" y="80" width="16.5" height="16.5" fill="#b8a890"/><rect x="192" y="80" width="16.5" height="16.5" fill="#d8c9b0"/><rect x="208" y="80" width="16.5" height="16.5" fill="#d8c9b0"/><rect x="48" y="96" width="16.5" height="16.5" fill="#d8c9b0"/><rect x="64" y="96" width="16.5" height="16.5" fill="#b8a890"/><rect x="80" y="96" width="16.5" height="16.5" fill="#8a7866"/><rect x="96" y="96" width="16.5" height="16.5" fill="#0a0a0a"/><rect x="112" y="96" width="16.5" height="16.5" fill="#0a0a0a"/><rect x="128" y="96" width="16.5" height="16.5" fill="#ffffff"/><rect x="144" y="96" width="16.5" height="16.5" fill="#b8a890"/><rect x="160" y="96" width="16.5" height="16.5" fill="#b8a890"/><rect x="176" y="96" width="16.5" height="16.5" fill="#b8a890"/><rect x="192" y="96" width="16.5" height="16.5" fill="#d8c9b0"/><rect x="208" y="96" width="16.5" height="16.5" fill="#d8c9b0"/><rect x="48" y="112" width="16.5" height="16.5" fill="#d8c9b0"/><rect x="64" y="112" width="16.5" height="16.5" fill="#b8a890"/><rect x="80" y="112" width="16.5" height="16.5" fill="#8a7866"/><rect x="96" y="112" width="16.5" height="16.5" fill="#8a7866"/><rect x="112" y="112" width="16.5" height="16.5" fill="#8a7866"/><rect x="128" y="112" width="16.5" height="16.5" fill="#8a7866"/><rect x="144" y="112" width="16.5" height="16.5" fill="#8a7866"/><rect x="160" y="112" width="16.5" height="16.5" fill="#b8a890"/><rect x="176" y="112" width="16.5" height="16.5" fill="#b8a890"/><rect x="192" y="112" width="16.5" height="16.5" fill="#d8c9b0"/><rect x="208" y="112" width="16.5" height="16.5" fill="#d8c9b0"/><rect x="48" y="128" width="16.5" height="16.5" fill="#d8c9b0"/><rect x="64" y="128" width="16.5" height="16.5" fill="#b8a890"/><rect x="80" y="128" width="16.5" height="16.5" fill="#ede5d0"/><rect x="96" y="128" width="16.5" height="16.5" fill="#ede5d0"/><rect x="112" y="128" width="16.5" height="16.5" fill="#ede5d0"/><rect x="128" y="128" width="16.5" height="16.5" fill="#ede5d0"/><rect x="144" y="128" width="16.5" height="16.5" fill="#ede5d0"/><rect x="160" y="128" width="16.5" height="16.5" fill="#ede5d0"/><rect x="176" y="128" width="16.5" height="16.5" fill="#b8a890"/><rect x="192" y="128" width="16.5" height="16.5" fill="#d8c9b0"/><rect x="208" y="128" width="16.5" height="16.5" fill="#d8c9b0"/><rect x="32" y="144" width="16.5" height="16.5" fill="#d8c9b0"/><rect x="48" y="144" width="16.5" height="16.5" fill="#d8c9b0"/><rect x="64" y="144" width="16.5" height="16.5" fill="#b8a890"/><rect x="80" y="144" width="16.5" height="16.5" fill="#ede5d0"/><rect x="96" y="144" width="16.5" height="16.5" fill="#ede5d0"/><rect x="112" y="144" width="16.5" height="16.5" fill="#ede5d0"/><rect x="128" y="144" width="16.5" height="16.5" fill="#ede5d0"/><rect x="144" y="144" width="16.5" height="16.5" fill="#ede5d0"/><rect x="160" y="144" width="16.5" height="16.5" fill="#ede5d0"/><rect x="176" y="144" width="16.5" height="16.5" fill="#b8a890"/><rect x="192" y="144" width="16.5" height="16.5" fill="#d8c9b0"/><rect x="208" y="144" width="16.5" height="16.5" fill="#d8c9b0"/><rect x="32" y="160" width="16.5" height="16.5" fill="#d8c9b0"/><rect x="48" y="160" width="16.5" height="16.5" fill="#d8c9b0"/><rect x="64" y="160" width="16.5" height="16.5" fill="#b8a890"/><rect x="80" y="160" width="16.5" height="16.5" fill="#ede5d0"/><rect x="96" y="160" width="16.5" height="16.5" fill="#ede5d0"/><rect x="112" y="160" width="16.5" height="16.5" fill="#ede5d0"/><rect x="128" y="160" width="16.5" height="16.5" fill="#ede5d0"/><rect x="144" y="160" width="16.5" height="16.5" fill="#ede5d0"/><rect x="160" y="160" width="16.5" height="16.5" fill="#ede5d0"/><rect x="176" y="160" width="16.5" height="16.5" fill="#b8a890"/><rect x="192" y="160" width="16.5" height="16.5" fill="#d8c9b0"/><rect x="208" y="160" width="16.5" height="16.5" fill="#d8c9b0"/><rect x="16" y="176" width="16.5" height="16.5" fill="#d8c9b0"/><rect x="32" y="176" width="16.5" height="16.5" fill="#d8c9b0"/><rect x="48" y="176" width="16.5" height="16.5" fill="#d8c9b0"/><rect x="64" y="176" width="16.5" height="16.5" fill="#3a2e22"/><rect x="80" y="176" width="16.5" height="16.5" fill="#3a2e22"/><rect x="96" y="176" width="16.5" height="16.5" fill="#3a2e22"/><rect x="112" y="176" width="16.5" height="16.5" fill="#3a2e22"/><rect x="128" y="176" width="16.5" height="16.5" fill="#3a2e22"/><rect x="144" y="176" width="16.5" height="16.5" fill="#3a2e22"/><rect x="160" y="176" width="16.5" height="16.5" fill="#3a2e22"/><rect x="176" y="176" width="16.5" height="16.5" fill="#3a2e22"/><rect x="192" y="176" width="16.5" height="16.5" fill="#3a2e22"/><rect x="208" y="176" width="16.5" height="16.5" fill="#d8c9b0"/><rect x="224" y="176" width="16.5" height="16.5" fill="#d8c9b0"/><rect x="16" y="192" width="16.5" height="16.5" fill="#3a2e22"/><rect x="32" y="192" width="16.5" height="16.5" fill="#3a2e22"/><rect x="48" y="192" width="16.5" height="16.5" fill="#3a2e22"/><rect x="64" y="192" width="16.5" height="16.5" fill="#3a2e22"/><rect x="208" y="192" width="16.5" height="16.5" fill="#3a2e22"/></svg>
